<?xml version="1.0" encoding="UTF-8" standalone="no"?>
<svg
   xmlns:dc="http://purl.org/dc/elements/1.1/"
   xmlns:cc="http://creativecommons.org/ns#"
   xmlns:rdf="http://www.w3.org/1999/02/22-rdf-syntax-ns#"
   xmlns:svg="http://www.w3.org/2000/svg"
   xmlns="http://www.w3.org/2000/svg"
   xmlns:sodipodi="http://sodipodi.sourceforge.net/DTD/sodipodi-0.dtd"
   xmlns:inkscape="http://www.inkscape.org/namespaces/inkscape"
   width="210mm"
   height="297mm"
   viewBox="0 0 210 297"
   version="1.1"
   id="svg8"
   inkscape:version="1.0.2 (e86c870879, 2021-01-15, custom)"
   sodipodi:docname="pokerbro-icon.svg">
  <defs
     id="defs2">
    <inkscape:path-effect
       effect="spiro"
       id="path-effect5142"
       is_visible="true"
       lpeversion="1" />
    <inkscape:path-effect
       effect="spiro"
       id="path-effect5119"
       is_visible="true"
       lpeversion="1" />
    <inkscape:path-effect
       effect="spiro"
       id="path-effect5114"
       is_visible="true"
       lpeversion="1" />
    <inkscape:path-effect
       effect="spiro"
       id="path-effect5091"
       is_visible="true"
       lpeversion="1" />
    <inkscape:path-effect
       effect="bspline"
       id="path-effect5087"
       is_visible="true"
       lpeversion="1"
       weight="33.333333"
       steps="2"
       helper_size="0"
       apply_no_weight="true"
       apply_with_weight="true"
       only_selected="false" />
    <inkscape:path-effect
       effect="skeletal"
       id="path-effect1115"
       is_visible="true"
       lpeversion="1"
       pattern="M 0,5 C 0,2.24 2.24,0 5,0 7.76,0 10,2.24 10,5 10,7.76 7.76,10 5,10 2.24,10 0,7.76 0,5 Z"
       copytype="single_stretched"
       prop_scale="1"
       scale_y_rel="false"
       spacing="0"
       normal_offset="0"
       tang_offset="0"
       prop_units="false"
       vertical_pattern="false"
       hide_knot="false"
       fuse_tolerance="0" />
    <marker
       style="overflow:visible"
       id="Arrow1Lstart"
       refX="0.0"
       refY="0.0"
       orient="auto"
       inkscape:stockid="Arrow1Lstart"
       inkscape:isstock="true">
      <path
         transform="scale(0.8) translate(12.5,0)"
         style="fill-rule:evenodd;stroke:#000000;stroke-width:1.0pt"
         d="M 0.0,0.0 L 5.0,-5.0 L -12.5,0.0 L 5.0,5.0 L 0.0,0.0 z "
         id="path835" />
    </marker>
  </defs>
  <sodipodi:namedview
     id="base"
     pagecolor="#ffffff"
     bordercolor="#666666"
     borderopacity="1.0"
     inkscape:pageopacity="0.0"
     inkscape:pageshadow="2"
     inkscape:zoom="0.70710678"
     inkscape:cx="78.688306"
     inkscape:cy="583.74457"
     inkscape:document-units="mm"
     inkscape:current-layer="layer2"
     inkscape:document-rotation="0"
     showgrid="false"
     inkscape:window-width="1920"
     inkscape:window-height="1137"
     inkscape:window-x="1912"
     inkscape:window-y="-8"
     inkscape:window-maximized="1" />
  <metadata
     id="metadata5">
    <rdf:RDF>
      <cc:Work
         rdf:about="">
        <dc:format>image/svg+xml</dc:format>
        <dc:type
           rdf:resource="http://purl.org/dc/dcmitype/StillImage" />
        <dc:title></dc:title>
      </cc:Work>
    </rdf:RDF>
  </metadata>
  <g
     inkscape:groupmode="layer"
     id="layer2"
     inkscape:label="Ebene 2" />
  <g
     inkscape:label="Ebene 1"
     inkscape:groupmode="layer"
     id="layer1">
    <g
       id="g5298"
       transform="translate(-64.247018,-73.539143)">
      <rect
         style="opacity:0.92;fill:none;fill-opacity:1;stroke:#ffffff;stroke-width:1.207;stroke-linecap:round;stroke-linejoin:round;stroke-miterlimit:4;stroke-dasharray:none;stroke-opacity:1;paint-order:fill markers stroke"
         id="rect1109-2"
         width="47.039436"
         height="62.541069"
         x="99.261597"
         y="90.050156"
         ry="3.8754051"
         transform="rotate(-0.24288655)" />
      <path
         style="fill:none;stroke:#ffffff;stroke-width:0.781;stroke-linecap:butt;stroke-linejoin:miter;stroke-miterlimit:4.3;stroke-dasharray:none;stroke-opacity:1"
         d="m 103.43443,98.34793 2.55021,-5.100395 2.71865,4.738861"
         id="path1119-4" />
      <path
         style="fill:#ff81a0;fill-opacity:1;stroke:#ffffff;stroke-width:1.41;stroke-linecap:butt;stroke-linejoin:miter;stroke-miterlimit:4;stroke-dasharray:none;stroke-opacity:1"
         d="m 118.79703,113.97322 c -2.57448,0.12226 -5.27393,3.08144 -5.48515,5.8657 -0.27301,3.59883 2.86709,6.44383 4.98207,9.22655 1.58699,2.08802 5.66976,5.45518 5.66976,5.45518 0,0 4.44939,-3.5685 6.13749,-5.82935 1.98173,-2.65411 4.79659,-5.25429 4.51435,-8.85238 -0.20979,-2.67455 -2.9173,-5.57782 -5.47809,-5.87012 -1.62592,-0.18559 -5.17021,2.64443 -5.17021,2.64443 0,0 -3.18976,-2.73405 -5.17022,-2.64001 z"
         id="path5249"
         sodipodi:nodetypes="ssacasscs" />
    </g>
    <path
       id="rect1109"
       style="opacity:0.92;fill:none;fill-opacity:1;stroke:#ffffff;stroke-width:1.207;stroke-linecap:round;stroke-linejoin:round;stroke-miterlimit:4;stroke-dasharray:none;stroke-opacity:1;paint-order:fill markers stroke"
       d="m 43.339694,1.1622406 c -0.381566,0.00277 -0.769239,0.062076 -1.1529,0.1839674 L 4.7425695,13.242639 C 2.6963826,13.892728 1.5722183,16.063338 2.2223101,18.109525 L 18.81251,70.327527 c 0.650092,2.04619 2.820699,3.170338 4.866886,2.52026 L 35.594433,69.062488 35.385658,19.823634 c -0.0091,-2.146957 1.711725,-3.882652 3.858681,-3.891754 L 50.871535,15.882789 47.05368,3.8664674 C 46.525481,2.2039395 44.993155,1.1502338 43.339694,1.1622406 Z" />
    <path
       style="fill:none;stroke:#ffffff;stroke-width:0.781;stroke-linecap:butt;stroke-linejoin:miter;stroke-miterlimit:4.3;stroke-dasharray:none;stroke-opacity:1"
       d="m 7.2725811,21.604357 0.910005,-5.629344 4.0102289,3.710245"
       id="path1119" />
    <path
       id="path5271-2"
       style="fill:#263238;fill-opacity:1;stroke:#ffffff;stroke-width:1.37496;stroke-linecap:butt;stroke-linejoin:miter;stroke-miterlimit:4;stroke-dasharray:none;stroke-opacity:1"
       d="m 29.520901,27.324468 c 0,0 -0.789077,3.25415 -1.624708,5.089609 -0.912775,2.004881 -3.067235,4.205002 -3.64422,6.322613 -0.475996,1.74698 -0.75084,3.8178 0.09818,5.402771 0.804222,1.501341 2.571565,2.435415 4.224031,2.940907 1.534565,0.469408 3.335575,0.540171 4.8426,-0.04961 0.772959,-0.302501 1.838647,-1.66605 1.838647,-1.66605 0,0 0.114099,0.631076 0.06873,0.944645 -0.141172,0.975651 -1.041797,2.78226 -1.041797,2.78226 l 1.377177,-0.488344 -0.07493,-17.557067 c -0.351009,-0.115599 -0.694719,-0.24565 -1.024228,-0.404109 -1.856558,-0.892799 -5.039485,-3.317626 -5.039485,-3.317626 z"
       sodipodi:nodetypes="cssssscscccsc" />
  </g>
</svg>
